<?xml version="1.0" ?><svg data-name="Layer 3" id="Layer_3" viewBox="0 0 100 100" xmlns="http://www.w3.org/2000/svg"><title/><path d="M46.36035,66.36523A5.42627,5.42627,0,1,0,40.93408,60.939,5.43224,5.43224,0,0,0,46.36035,66.36523Zm0-7.85253A2.42627,2.42627,0,1,1,43.93408,60.939,2.429,2.429,0,0,1,46.36035,58.5127Z"/><path d="M26.48926,63.5791a1.4987,1.4987,0,0,0,1.89013.96338l2.14093-.69562a14.255,14.255,0,0,0,3.45685,4.74005L32.648,70.4165a1.5,1.5,0,1,0,2.42676,1.76368l1.32544-1.82435A14.08359,14.08359,0,0,0,41.98,72.183v2.24079a1.5,1.5,0,0,0,3,0V72.18311a14.08462,14.08462,0,0,0,5.58026-1.82734l1.3255,1.82441A1.5,1.5,0,0,0,54.3125,70.4165l-1.32928-1.82959a14.25582,14.25582,0,0,0,3.4569-4.74005l2.14093.69562a1.50012,1.50012,0,0,0,.92676-2.85352l-2.13153-.69256a14.10431,14.10431,0,0,0-.00006-5.87512l2.13159-.69257a1.50012,1.50012,0,1,0-.92676-2.85351l-2.141.69561a14.255,14.255,0,0,0-3.45684-4.74l1.32928-1.82965a1.5,1.5,0,0,0-2.42676-1.76367l-1.3255,1.8244A14.08476,14.08476,0,0,0,44.98,43.93457V41.69385a1.5,1.5,0,0,0-3,0v2.24078a14.083,14.083,0,0,0-5.57983,1.82721L35.07471,43.9375A1.5,1.5,0,0,0,32.648,45.70117l1.32928,1.82959a14.25465,14.25465,0,0,0-3.45684,4.74l-2.141-.69561a1.50012,1.50012,0,1,0-.92675,2.85351l2.13159.69257a14.10431,14.10431,0,0,0-.00006,5.87512l-2.13153.69256A1.50041,1.50041,0,0,0,26.48926,63.5791ZM43.48,46.85352A11.20532,11.20532,0,1,1,32.2749,58.05908,11.21833,11.21833,0,0,1,43.48,46.85352Z"/><path d="M18.23633,39.40088a1.498,1.498,0,0,0,2.04883.54883l2.02911-1.17151a6.54911,6.54911,0,0,0,3.26923,1.89148v2.3396a1.5,1.5,0,1,0,3,0V40.66974a6.54987,6.54987,0,0,0,3.26971-1.89154l2.02911,1.17151a1.49982,1.49982,0,1,0,1.5-2.59766l-2.02258-1.16772a6.51088,6.51088,0,0,0,.00006-3.78327l2.02252-1.16766a1.49982,1.49982,0,0,0-1.5-2.59766l-2.02911,1.17151a6.54943,6.54943,0,0,0-3.26971-1.89154V25.57617a1.5,1.5,0,0,0-3,0v2.3396a6.549,6.549,0,0,0-3.26929,1.89148l-2.029-1.17151a1.49982,1.49982,0,0,0-1.5,2.59766l2.02252,1.16766a6.51088,6.51088,0,0,0,.00006,3.78327l-2.02258,1.16772A1.49953,1.49953,0,0,0,18.23633,39.40088Zm8.84717-8.665a3.55689,3.55689,0,1,1-3.55664,3.55664A3.561,3.561,0,0,1,27.0835,30.73584Z"/><path d="M73.66992,51.79657c-.06451-.01978-.12652-.0448-.19189-.06268a6.51514,6.51514,0,0,0-3.58753.0415l-1.15857-2.03076A1.4998,1.4998,0,0,0,66.12646,51.231l1.1587,2.03094a6.50591,6.50591,0,0,0-1.86133,3.0672c-.01789.06543-.028.13159-.04376.19727l-2.34-.01221a1.53254,1.53254,0,0,0-1.50781,1.49219,1.49977,1.49977,0,0,0,1.49218,1.50781l2.33094.01215a6.50043,6.50043,0,0,0,1.88177,3.28143l-1.18048,2.02038a1.49987,1.49987,0,1,0,2.58984,1.51368l1.18476-2.02771a6.58989,6.58989,0,0,0,1.92853.30066,6.51455,6.51455,0,0,0,1.84472-.27692l1.16113,2.03522a1.4998,1.4998,0,1,0,2.60547-1.48633l-1.15869-2.031a6.50626,6.50626,0,0,0,1.86084-3.06762c.01782-.06519.02777-.131.04358-.19642l2.34021.01185h.00781a1.5,1.5,0,0,0,.00782-3l-2.33088-.01185a6.57416,6.57416,0,0,0-.69793-1.7821v-.00049a6.584,6.584,0,0,0-1.17914-1.50738l1.17572-2.01215a1.49987,1.49987,0,1,0-2.58984-1.51367Zm-.1582,9.35187a3.55706,3.55706,0,1,1,1.32666-4.852A3.5624,3.5624,0,0,1,73.51172,61.14844Z"/><path d="M38.56006,55.8999a1.5029,1.5029,0,0,0,1.5-1.5,1.49773,1.49773,0,0,0-.44043-1.06006,1.547,1.547,0,0,0-2.11963,0,1.49727,1.49727,0,0,0-.43994,1.06006A1.5153,1.5153,0,0,0,37.5,55.46,1.49842,1.49842,0,0,0,38.56006,55.8999Z"/></svg>